<svg xmlns="http://www.w3.org/2000/svg" width="501" height="693" viewBox="0 0 501 693" fill="none">
<g opacity="0.3">
<path d="M199.156 287.67L99.6362 230.175L0.0010376 287.67L99.6362 345.165L199.156 287.67Z" fill="#4D4DD6"/>
<path d="M99.6351 345.664L0 288.169V403.159L99.6351 460.654V345.664Z" fill="#2D2D88"/>
<path d="M99.6342 345.664V460.654L199.154 403.274V288.169L99.6342 345.664Z" fill="#4141BA"/>
<path d="M398.54 288.169L498.176 230.674V345.664L398.54 288.169Z" fill="#4D4DD6"/>
<path d="M498.176 345.716V460.707L398.541 403.327V288.221L498.176 345.716Z" fill="#2D2D88"/>
<path d="M298.789 230.495V345.485L199.27 288.106V174.963L199.154 173L298.789 230.495Z" fill="#2D2D88"/>
<path d="M298.79 230.442L199.155 172.947L498.753 0L498.06 115.568L298.79 230.442Z" fill="#4D4DD6"/>
<path d="M298.79 345.433V230.443L395.077 174.91L498.176 115.568V230.674L298.79 345.433Z" fill="#4141BA"/>
<path d="M199.155 402.661L298.79 345.166L498.984 460.502V575.724L199.155 402.661Z" fill="#4D4DD6"/>
<path d="M199.154 403.211L498.752 576.158L500.6 692.418L199.27 518.548L199.154 403.211Z" fill="#2D2D88"/>
</g>
<style xmlns="" id="PDFTStyle">.qtip-content { font-family: "Times New Roman"; font-size: 17px; line-height: 19px;} .qtip-max-width { max-width: 300px; }</style></svg>